<svg width="192" height="25" viewBox="0 0 192 25" fill="none" xmlns="http://www.w3.org/2000/svg">
<g clip-path="url(#clip0_331_51429)">
<path d="M135.459 10.8281H133.56V4.77051H135.459C137.183 4.77051 138.795 5.8432 138.795 7.79928C138.795 9.75536 137.183 10.8281 135.459 10.8281ZM135.292 5.55294H134.49V10.0498H135.292C136.685 10.0498 137.839 9.33891 137.839 7.79928C137.839 6.25965 136.685 5.55294 135.292 5.55294Z" fill="black"/>
<path d="M140.295 10.8281V4.77051H143.627V5.56135H141.234V7.39124H143.241V8.17788H141.234V10.0372H143.966V10.8281H140.295Z" fill="black"/>
<path d="M147.143 8.16946H146.213V10.8281H145.287V4.77051H147.143C148.014 4.77051 149 5.31737 149 6.46999C149 7.6226 148.014 8.16946 147.143 8.16946ZM146.976 5.54873H146.213V7.38703H146.976C147.525 7.38703 148.039 7.10098 148.039 6.46578C148.039 5.83058 147.525 5.54873 146.976 5.54873Z" fill="black"/>
<path d="M153.836 10.828L153.172 9.26309H150.771L150.102 10.828H149.184L151.817 4.68628H152.155L154.784 10.828H153.836ZM152.241 7.05041C152.155 6.85269 152.057 6.56664 151.98 6.30583H151.958C151.894 6.56664 151.782 6.84849 151.697 7.05041L151.083 8.53114H152.846L152.233 7.05041H152.241Z" fill="black"/>
<path d="M159.839 10.8281L157.897 8.16946H157.022V10.8281H156.096V4.77051H158.051C158.921 4.77051 159.907 5.31737 159.907 6.46999C159.907 7.27345 159.427 7.79087 158.827 8.02644L160.936 10.8281H159.843H159.839ZM157.884 5.55294H157.018V7.39124H157.884C158.437 7.39124 158.947 7.10519 158.947 6.46999C158.947 5.83479 158.437 5.55294 157.884 5.55294Z" fill="black"/>
<path d="M163.749 5.56135V10.8281H162.806V5.56135H160.825V4.77051H165.73V5.56135H163.749Z" fill="black"/>
<path d="M172.972 10.8279L172.719 8.08935C172.68 7.68131 172.641 7.15969 172.624 6.71378H172.607C172.41 7.13865 172.11 7.72758 171.908 8.11459L170.476 10.8699H170.125L168.675 8.11459C168.461 7.71496 168.199 7.17651 167.985 6.7264H167.964C167.946 7.19334 167.899 7.72758 167.874 8.08514L167.629 10.8237H166.797L167.329 4.76611H167.908L169.559 7.88323C169.807 8.35437 170.125 8.97274 170.33 9.43547H170.352C170.545 8.97274 170.841 8.38381 171.102 7.88323L172.727 4.76611H173.31L173.863 10.8237H172.972V10.8279Z" fill="black"/>
<path d="M175.411 10.8281V4.77051H178.738V5.56135H176.35V7.39124H178.352V8.17788H176.35V10.0372H179.077V10.8281H175.411Z" fill="black"/>
<path d="M185.65 10.9583L182.756 7.85378C182.289 7.3616 181.757 6.75164 181.333 6.25526L181.316 6.26788C181.333 6.81895 181.333 7.33216 181.333 7.78647V10.8237H180.398V4.76611H181.045L183.695 7.614C184.055 8.00522 184.613 8.61097 184.994 9.06529L185.011 9.05688C184.994 8.58994 184.994 8.06832 184.994 7.63083V4.76611H185.933V10.9583H185.655H185.65Z" fill="black"/>
<path d="M190.015 5.56135V10.8281H189.076V5.56135H187.091V4.77051H192V5.56135H190.015Z" fill="black"/>
<path d="M135.043 20.4359C134.374 20.4359 133.766 20.234 133.448 20.0321L133.234 19.0225C133.821 19.4348 134.422 19.6409 135.09 19.6409C135.759 19.6409 136.231 19.2623 136.231 18.7028C136.231 18.1812 135.901 17.8278 135.159 17.5923C134.053 17.2389 133.474 16.6331 133.474 15.796C133.474 14.9589 134.113 14.1428 135.429 14.1428C136.038 14.1428 136.553 14.3363 136.771 14.5004L136.587 15.2576C136.377 15.1019 135.892 14.9042 135.386 14.9042C134.756 14.9042 134.37 15.287 134.37 15.7287C134.37 16.1284 134.717 16.4523 135.365 16.6668C136.437 17.0286 137.166 17.5923 137.166 18.6145C137.166 19.6956 136.432 20.4317 135.035 20.4317" fill="black"/>
<path d="M140.771 15.0515V20.3224H139.832V15.0515H137.847V14.2649H142.752V15.0515H140.771Z" fill="black"/>
<path d="M146.637 20.436C144.995 20.436 143.366 19.2497 143.366 17.2852C143.366 15.3207 144.995 14.1387 146.637 14.1387C148.279 14.1387 149.909 15.3376 149.909 17.2852C149.909 19.2329 148.284 20.436 146.637 20.436ZM146.637 14.9421C145.492 14.9421 144.313 15.7877 144.313 17.2852C144.313 18.7828 145.492 19.6409 146.637 19.6409C147.782 19.6409 148.957 18.787 148.957 17.2852C148.957 15.7835 147.761 14.9421 146.637 14.9421Z" fill="black"/>
<path d="M154.766 20.3223L152.82 17.6637H151.949V20.3223H151.019V14.2605H152.974C153.845 14.2605 154.831 14.8158 154.831 15.9642C154.831 16.7719 154.346 17.2809 153.746 17.5206L155.855 20.3223H154.762H154.766ZM152.811 15.0387H151.949V16.8854H152.811C153.364 16.8854 153.875 16.5994 153.875 15.9642C153.875 15.329 153.36 15.0387 152.811 15.0387Z" fill="black"/>
<path d="M156.876 20.3224V14.2649H160.207V15.0515H157.815V16.8856H159.817V17.6765H157.815V19.5358H160.542V20.3224H156.876Z" fill="black"/>
<path d="M58.3458 4.05103C51.9444 4.05103 48.1069 7.85803 48.1069 12.5695C48.1069 17.2809 51.9487 21.0668 58.3458 21.0668C64.7429 21.0668 68.5889 17.2683 68.5889 12.5695C68.5889 7.87065 64.7515 4.05103 58.3458 4.05103ZM58.3458 19.2412C55.2801 19.2412 52.952 16.2503 52.952 12.5695C52.952 8.88865 55.2801 5.88091 58.3458 5.88091C61.4114 5.88091 63.7568 8.88024 63.7568 12.5695C63.7568 16.2587 61.42 19.2412 58.3458 19.2412Z" fill="black"/>
<path d="M69.4595 6.57072H76.1996V20.3685H81.2762V6.57072H86.9616V4.67773H69.4595V6.57072Z" fill="black"/>
<path d="M88.8179 6.57072H94.5033V20.3685H99.5798V6.57072H106.324V4.67773H88.8179V6.57072Z" fill="black"/>
<path d="M38.0053 17.5584V4.67773H33.126V18.4923C33.126 19.5271 33.9964 20.3685 35.0554 20.3685H47.5324V18.4839H38.97C38.4383 18.4839 38.0053 18.0716 38.0053 17.5584Z" fill="black"/>
<path d="M109.085 6.54987V18.4925C109.085 19.5273 109.956 20.3686 111.023 20.3686H124.315V18.5093H114.942C114.398 18.5093 113.965 18.0971 113.965 17.5754V12.9566H124.169V11.1267H113.965V7.46692C113.965 6.9495 114.402 6.53305 114.942 6.53305H124.315V4.68213H111.023C109.956 4.68213 109.085 5.51504 109.085 6.55408V6.54987Z" fill="black"/>
<path d="M2.16203 7.3521L7.49195 2.12286C10.3873 -0.717819 15.0866 -0.717818 17.982 2.12286L23.3119 7.3521C26.2073 10.1928 26.2073 14.8033 23.3119 17.644L17.982 22.8732C15.0866 25.7139 10.3873 25.7139 7.49195 22.8732L2.16203 17.644C-0.733355 14.8033 -0.733355 10.1928 2.16203 7.3521Z" fill="black"/>
<path d="M9.57877 20.1834C9.1543 20.1834 8.81129 19.8595 8.79414 19.4431C8.78556 19.2369 8.85845 19.0392 8.99994 18.8878C9.14143 18.7364 9.33866 18.648 9.54876 18.6396C9.98181 18.6186 10.3505 18.9551 10.3677 19.38C10.3848 19.8048 10.0461 20.1666 9.61307 20.1834C9.60021 20.1834 9.59163 20.1834 9.57877 20.1834Z" fill="white"/>
<path d="M12.4474 5.90625C12.0143 5.90625 11.667 6.04087 11.3883 6.31009C10.7838 6.89902 10.4665 8.11473 10.4965 9.73429C10.5308 11.7324 11.0153 15.6488 12.6146 17.6638C12.8761 17.9919 13.1548 18.2527 13.4421 18.4378C13.7251 18.6187 14.0381 18.7996 14.5355 18.7996C14.6684 18.7996 14.8142 18.787 14.9642 18.7617C15.8818 18.5472 17.0309 17.5418 17.8884 16.2083C18.017 16.0064 18.2443 15.8844 18.4887 15.8844C18.6216 15.8844 18.7502 15.9222 18.866 15.9895C19.0246 16.0863 19.1361 16.2419 19.179 16.4228C19.2218 16.6037 19.1875 16.7888 19.0889 16.9445C18.0084 18.6313 16.5807 19.8176 15.2686 20.112C15.2644 20.112 15.2515 20.1163 15.2343 20.1205C14.9942 20.1625 14.7584 20.1878 14.5312 20.1878C13.6865 20.1878 13.0905 19.8723 12.6661 19.5988C12.2459 19.3254 11.8557 18.9636 11.4998 18.5177C9.24452 15.6783 9.09017 10.3569 9.0816 9.75953C9.05587 8.34189 9.26596 6.42367 10.3936 5.32574C10.9424 4.7915 11.6327 4.51807 12.4431 4.51807H12.576C13.3864 4.51807 14.0767 4.7915 14.6298 5.32574C15.7574 6.42367 15.9632 8.34189 15.9418 9.75953C15.9161 11.2361 15.6417 14.0924 14.081 16.6584C13.9523 16.8687 13.7208 16.9949 13.4721 16.9949C13.3435 16.9949 13.2192 16.9613 13.112 16.8982C12.7775 16.7005 12.6661 16.2756 12.8676 15.9475C13.9609 14.1555 14.4883 12.1825 14.5269 9.73849C14.5569 8.11894 14.2396 6.90323 13.6351 6.3143C13.3564 6.04087 13.0091 5.91046 12.576 5.91046H12.4517L12.4474 5.90625Z" fill="white"/>
</g>
<defs>
<clipPath id="clip0_331_51429">
<rect width="192" height="25" fill="white"/>
</clipPath>
</defs>
</svg>
