<?xml version="1.0" encoding="utf-8"?>
<!-- Generator: Adobe Illustrator 25.0.1, SVG Export Plug-In . SVG Version: 6.00 Build 0)  -->
<svg version="1.2" baseProfile="tiny" id="레이어_1"
	 xmlns="http://www.w3.org/2000/svg" xmlns:xlink="http://www.w3.org/1999/xlink" x="0px" y="0px" viewBox="0 0 2048 581.9"
	 overflow="visible" xml:space="preserve">
<g>
	<g>
		<path fill="#5087C7" d="M343.1743,276.1049c0,0,97.9515-65.3707,252.4572-27.9933c0,0-34.1042,6.0166-49.5353,27.9933
			C546.0963,276.1049,447.1404,240.2593,343.1743,276.1049z"/>
		<path fill="#659AD2" d="M333.3456,276.1432c0,0,88.5369-133.944,229.3993-138.0222c0,0-33.418,19.4506-39.3923,47.6774
			C523.3525,185.7984,401.4376,196.2957,333.3456,276.1432z"/>
		<path fill="#95B6DF" d="M322.6911,276.0848c0,0,42.617-165.2184,156.4724-228.3085c0,0-34.4205,39.0099-32.1016,78.8048
			C447.0619,126.5811,366.0167,164.814,322.6911,276.0848z"/>
		<path fill="#C7D6EE" d="M313.1581,277.6468c0,0-5.6623-194.4879,55.6887-277.6184c0,0-22.7236,41.7132-7.0572,95.22
			C361.7896,95.2483,321.9645,151.7926,313.1581,277.6468z"/>
		<path fill="#5087C7" d="M252.417,276.1049c0,0-97.9716-65.3707-252.417-27.9933c0,0,34.0662,6.0166,49.4971,27.9933
			C49.4971,276.1049,148.451,240.2593,252.417,276.1049z"/>
		<path fill="#659AD2" d="M262.2459,276.1432c0,0-88.5352-133.944-229.3995-138.0222c0,0,33.4181,19.4506,39.3923,47.6774
			C72.2388,185.7984,194.2121,196.2957,262.2459,276.1432z"/>
		<path fill="#95B6DF" d="M272.9002,276.0848c0,0-42.6371-165.2184-156.5106-228.3085c0,0,34.4587,39.0099,32.16,78.8048
			C148.5496,126.5811,229.5746,164.814,272.9002,276.0848z"/>
		<path fill="#C7D6EE" d="M282.4131,277.6468c0,0,5.6625-194.4879-55.6887-277.6184c0,0,22.7641,41.7132,7.0975,95.22
			C233.8218,95.2483,273.6268,151.7926,282.4131,277.6468z"/>
		<path fill="#0066A6" d="M12.5403,296.6747h242.5699c0,0,12.168,20.5235,43.2853,20.5235
			c31.1757,0,41.0248-19.7365,41.0248-19.7365h243.1194l-0.8052,10.5758H345.4932c0,0-14.4284,19.7948-48.6114,19.7948
			c-34.1649,0-48.7302-20.4148-48.7302-20.4148l-235.3758,0.1389L12.5403,296.6747z"/>
		<g>
			<path fill="#0066A6" d="M350.0544,316.9425c0,0-17.476,19.3721-53.8993,19.3721c-36.4837,0-52.446-20.6805-52.446-20.6805
				H13.1704c9.4747,148.6482,133.0382,266.2375,284.084,266.2375c150.7515,0,274.1399-117.1666,284.0473-265.4404L350.0544,316.9425
				z M222.8133,373.4263h149.4151v6.3004H222.8133V373.4263z M188.8075,384.1792h217.4671v7.7939H188.8075V384.1792z
				 M396.4456,396.6612v4.4324H198.6163v-4.4324H396.4456z M415.6104,491.4967h-236.181v-10.9783h8.7883v-74.5697h36.2462v75.0125
				h12.7779v-67.2367h-8.0395v-7.7758h136.9916v7.7758h-8.0798v67.2367h12.5222v-75.0125h36.2281v74.5697h8.746L415.6104,491.4967
				L415.6104,491.4967z"/>
			<rect x="343.4302" y="413.7245" fill="#0060A0" width="11.3605" height="66.7939"/>
			<rect x="284.6555" y="413.7245" fill="#0060A0" width="11.3608" height="66.7939"/>
			<rect x="299.3395" y="413.7245" fill="#0060A0" width="11.3811" height="66.7939"/>
			<rect x="314.0621" y="413.7245" fill="#0060A0" width="11.3626" height="66.7939"/>
			<rect x="328.7258" y="413.7245" fill="#0060A0" width="11.3831" height="66.7939"/>
			<rect x="269.9714" y="413.7245" fill="#0060A0" width="11.361" height="66.7939"/>
			<rect x="240.6033" y="413.7245" fill="#0060A0" width="11.3427" height="66.7939"/>
			<rect x="255.2672" y="413.7245" fill="#0060A0" width="11.3427" height="66.7939"/>
		</g>
	</g>
	<g>
		<g>
			<g>
				<path fill="#69747A" d="M1825.8932,282.4255c-2.1947,0-7.98-0.0885-7.98,4.6096c0,1.5297,0.6196,5.1202,6.3391,5.1202
					c2.5919,0,4.8751,0.2656,6.5591,0.7331c1.995,0.4199,3.9242,1.3504,4.5665,7.1811v45.8575c0,4.6981,1.507,8.5315,4.5214,11.4797
					c3.016,2.9482,6.8948,4.3894,11.636,4.3894h159.5608v-22.9617h-137.4615v-56.4089H1825.8932z"/>
				<path fill="#69747A" d="M1939.0175,262.2123c9.1329,0,19.0625-2.5261,29.7002-7.6236v43.7944h37.6804V193.8584H2048v-22.9617
					h-41.6019V116.526h-47.2106c-2.1493,0-7.9346-0.0658-7.9346,4.6345c0,1.5501,0.5992,5.0975,6.339,5.0975
					c2.5715,0,4.8547,0.3087,6.5592,0.7308c1.9746,0.4199,3.9469,1.3527,4.5665,7.1584v96.858
					c-6.6477,5.5401-16.4888,8.2886-29.589,8.2886l-12.0562-0.0204l0.354-0.3768c3.1912-3.6359,5.9623-8.1797,8.2229-13.5223
					c2.2605-5.4289,3.4362-12.1447,3.4362-19.9907v-64.7634c0-4.7435-1.5524-8.5995-4.5435-11.6136
					c-3.0371-3.0367-6.9385-4.5233-11.6593-4.5233h-129.6379l11.9019,22.9412l96.4586,0.0004v57.6934
					c0,7.9999-0.3337,14.1849-1.0646,18.3065c-0.7308,4.0785-2.2606,8.9105-4.655,14.2736l-0.6854,1.5751h-23.495V186.144h-46.1003
					c-2.1516,0-7.9573-0.0885-7.9573,4.6118c0,1.507,0.5768,5.0975,6.339,5.0975c2.5919,0,4.8524,0.2655,6.5592,0.7308
					c1.995,0.3768,3.9242,1.3527,4.5665,7.181v35.5081h-53.5039l0,0l11.9246,22.9389h145.4844V262.2123z"/>
			</g>
			<g>
				<path fill="#69747A" d="M1571.447,121.8232c-2.172,0-7.9777-0.0885-7.9777,4.6118c0,1.5297,0.5742,5.1203,6.3595,5.1203
					c2.5714,0,4.8546,0.2428,6.5387,0.6854c1.995,0.4449,3.9242,1.3754,4.5891,7.2265v25.3107
					c0,23.6947-7.2264,44.9043-21.4342,63.1247c-13.3861,17.0879-28.4359,27.6598-44.7272,31.3842l13.9856,17.3761l0.465-0.0431
					c13.9423-1.3096,28.7469-8.0685,44.0194-20.0815c13.3859-10.506,22.4303-20.8782,27.3716-30.8531
					c4.9883,9.9749,14.0304,20.3471,27.3734,30.8531c15.2499,12.0131,30.0769,18.7719,44.0192,20.0815l0.4652,0.0431
					l13.9854-17.3761c-16.2686-3.7244-31.3184-14.2963-44.7499-31.3842c-14.1624-18.2204-21.4115-39.43-21.4115-63.1247v-42.9547
					L1571.447,121.8232L1571.447,121.8232z"/>
			</g>
			<g>
				<g>
					<path fill="#69747A" d="M975.674,231.0483v-22.9617h-39.0305c2.2379-3.679,4.2782-8.7766,6.0281-15.5151
						c2.0608-7.7575,3.0822-15.1587,3.0822-21.9199v-36.593c0-4.7866-1.5297-8.5996-4.5438-11.659
						c-3.0367-3.014-6.8951-4.5438-11.6363-4.5438H748.8898l11.9019,22.9639H907.52v30.8735c0,6.7816-0.377,13.477-0.9532,19.993
						c-0.6653,6.0735-1.9065,11.5682-3.7676,16.4002H717.8597l11.9044,22.9617h98.9616v41.3591h-83.4491l11.9473,22.9185h149.1657
						v66.4701h38.277v-73.2517c0-4.7435-1.5728-8.6018-4.5438-11.6159c-3.0367-3.0367-6.9155-4.5211-11.6794-4.5211h-61.4406
						V231.048H975.674V231.0483z"/>
				</g>
				<path fill="#69747A" d="M1166.3759,140.9288h-56.5426v-27.948h-47.8074c-2.1062,0-7.9116-0.0658-7.9116,4.6323
					c0,1.507,0.5309,5.0975,6.316,5.0975c2.5919,0,4.8751,0.2655,6.5615,0.7308c1.9927,0.4221,3.9219,1.3527,4.5641,7.1606v10.3267
					h-72.0102l11.9246,22.9639h30.2538c-12.6553,10.1066-20.524,24.2236-20.524,39.7613c0,25.667,21.3004,47.2987,50.3558,53.9487
					v20.2563h-77.3755l11.9041,22.9639h154.1068c9.1306,0,19.0602-2.5284,29.7432-7.669v68.6422h37.6802v-245.27h-47.2102
					c-2.172,0-7.9573-0.0658-7.9573,4.6118c0,1.5297,0.5764,5.1202,6.339,5.1202c2.5715,0,4.855,0.2655,6.5388,0.7081
					c1.995,0.3995,3.9448,1.33,4.6095,7.1584v135.4459c-6.6703,5.5424-16.5544,8.2886-29.6774,8.2886h-50.4237v-20.3448h-0.0887
					c28.9261-6.7385,50.0925-28.2612,50.0925-53.8602c0-15.5378-7.8256-29.6548-20.481-39.7613h27.0198v-22.9639H1166.3759z
					 M1058.946,203.3885c0-20.0815,14.1396-36.3705,31.5839-36.3705c17.4877,0,31.6046,16.289,31.6046,36.3705
					c0,20.1246-14.1169,36.3932-31.6046,36.3932C1073.0857,239.7818,1058.946,223.5132,1058.946,203.3885z"/>
			</g>
			<g>
				<path fill="#69747A" d="M1293.8622,121.8232c-2.1493,0-7.955-0.0431-7.955,4.655c0,1.507,0.5764,5.0975,6.3594,5.0975
					c2.5488,0,4.8323,0.2224,6.5161,0.6877c1.995,0.4426,3.9468,1.3754,4.6118,7.2038v95.7935
					c0,4.6981,1.5071,8.5542,4.5211,11.5024c2.9686,2.9255,6.8474,4.3667,11.6135,4.3667h57.8706v54.4798h-104.527l11.9041,22.9844
					h226.5164v-22.9844h-95.6165v-54.4798h75.6461v-22.939h-149.6968v-83.4037h145.5529v-22.9639H1293.8622z"/>
			</g>
			<path fill="#69747A" d="M1694.7687,116.526c-2.1493,0-7.9346-0.0658-7.9346,4.6345c0,1.5501,0.5764,5.0975,6.3163,5.0975
				c2.5715,0,4.8774,0.3087,6.5615,0.7308c1.995,0.4199,3.9219,1.3527,4.5868,7.1584v38.0341h-53.1929v23.0071h53.1929v166.6077
				h38.257V116.526H1694.7687z"/>
		</g>
		<path fill="#69747A" d="M745.322,409.0267h14.1193l26.0645,49.7817h0.1994v-49.7817h10.4833v67.6027h-12.855l-27.3284-52.2192
			h-0.177v52.2192h-10.506v-67.6027H745.322z"/>
		<path fill="#69747A" d="M826.5764,409.0267h13.8086l23.0272,67.6027h-11.9677l-5.8737-18.309h-24.2917l-5.8964,18.309h-11.947
			L826.5764,409.0267z M824.0276,449.5892h18.7946l-9.3099-29.657h-0.177L824.0276,449.5892z"/>
		<path fill="#69747A" d="M878.4188,417.7602h-16.9563v-8.7335h45.3469v8.7335h-16.9336v58.8692h-11.457L878.4188,417.7602
			L878.4188,417.7602z"/>
		<path fill="#69747A" d="M913.793,409.0267h11.4797v67.6027H913.793V409.0267z"/>
		<path fill="#69747A" d="M949.2557,442.8508c0-14.4075,3.0571-26.7746,14.7161-26.7746c11.5705,0,14.6957,12.3671,14.6957,26.7746
			c0,14.4052-3.1252,26.7292-14.6957,26.7292C952.3128,469.58,949.2557,457.256,949.2557,442.8508z M963.9718,477.737
			c21.0555,0,27.3057-15.2041,27.3057-34.8862c0-19.7048-6.2502-34.8862-27.3057-34.8862
			c-21.1664,0-27.3511,15.1814-27.3511,34.8862C936.6207,462.5328,942.8054,477.737,963.9718,477.737z"/>
		<path fill="#69747A" d="M1002.9592,409.0267h14.1169l26.0665,49.7817h0.177v-49.7817h10.4834v67.6027h-12.8324l-27.3511-52.2192
			h-0.1768v52.2192h-10.4836v-67.6027H1002.9592z"/>
		<path fill="#69747A" d="M1084.1909,409.0267h13.8287l23.0298,67.6027h-11.97l-5.8715-18.309h-24.3145l-5.8734,18.309h-11.9702
			L1084.1909,409.0267z M1081.6421,449.5892h18.8176l-9.3102-29.657h-0.1995L1081.6421,449.5892z"/>
		<path fill="#69747A" d="M1128.2736,409.0267h11.4819v58.9123h26.5522v8.6903h-38.0342V409.0267z"/>
		<path fill="#69747A" d="M1225.1996,419.9322h0.177l9.308,29.657h-18.7949L1225.1996,419.9322z M1195.2997,476.6294h11.9453
			l5.8961-18.309h24.2917l5.8964,18.309h11.9473l-23.0298-67.6027h-13.8082L1195.2997,476.6294z"/>
		<path fill="#69747A" d="M1298.297,420.3975c-4.5006-1.7499-10.0862-4.3214-16.979-4.3214c-5.674,0-10.1724,2.5715-10.1724,8.334
			c0,11.9677,32.2489,13.7198,32.2489,34.11c0,12.6553-10.1974,19.2168-24.9136,19.2168c-8.688,0-16.6453-2.3718-18.7061-2.837
			v-11.8791c4.0127,2.4376,10.5945,6.5592,19.1283,6.5592c8.999,0,11.8359-5.009,11.8359-9.3962
			c0-14.6957-32.2284-15.5832-32.2284-34.8c0-12.0562,10.4833-17.4193,23.2294-17.4193c7.5352,0,14.1171,1.3731,16.5569,1.8611
			V420.3975z"/>
		<path fill="#69747A" d="M1349.1411,420.3975c-4.4987-1.7499-10.0842-4.3214-16.9338-4.3214
			c-5.6968,0-10.2178,2.5715-10.2178,8.334c0,11.9677,32.2489,13.7198,32.2489,34.11c0,12.6553-10.1725,19.2168-24.8682,19.2168
			c-8.7335,0-16.668-2.3718-18.7289-2.837v-11.8791c4.0127,2.4376,10.5719,6.5592,19.1056,6.5592
			c8.9994,0,11.8364-5.009,11.8364-9.3962c0-14.6957-32.2266-15.5832-32.2266-34.8c0-12.0562,10.5063-17.4193,23.2272-17.4193
			c7.5579,0,14.1193,1.3731,16.5571,1.8611V420.3975z"/>
		<path fill="#69747A" d="M1364.1453,409.0267h39.4753v8.7335h-28.0159v19.505h26.552v8.7335h-26.552v21.9403h28.8125v8.6903
			h-40.272V409.0267z"/>
		<path fill="#69747A" d="M1414.8801,409.0267h15.6921l18.8176,53.9941h0.1995l18.9058-53.9941h15.5809v67.6027h-10.4833v-53.2837
			h-0.1998l-18.6176,53.2837h-10.5719l-18.6176-53.2837h-0.1998v53.2837h-10.506V409.0267z"/>
		<path fill="#69747A" d="M1509.743,417.1837h4.6096c7.2695,0,12.256,1.2642,12.256,9.6867c0,8.7108-5.2974,9.9069-12.256,9.9069
			h-4.6096V417.1837z M1498.3065,476.6294h20.7443c9.7982,0,22.5417-2.0404,22.5417-18.7084
			c0-13.0321-8.7992-16.3571-14.6072-17.2422v-0.177c3.9469-1.5751,11.2825-4.6118,11.2825-15.6036
			c0-13.6994-11.859-15.8714-19.217-15.8714h-20.7443V476.6294z M1509.743,444.8889h4.6096c9.5074,0,15.6036,3.148,15.6036,12.0585
			c0,10.1066-8.157,11.5682-15.6036,11.5682h-4.6096V444.8889z"/>
		<path fill="#69747A" d="M1553.0723,409.0267h11.4388v58.9123h26.5726v8.6903h-38.0115V409.0267z"/>
		<path fill="#69747A" d="M1608.0173,445.2883l-22.2286-36.2616h13.0325l15.004,24.3144l15.0044-24.3144h13.0117l-22.342,36.2616
			v31.3411h-11.4819V445.2883z"/>
		<path fill="#69747A" d="M1676.4393,409.0267h11.4592v58.9123h26.5521v8.6903h-38.0114V409.0267z"/>
		<path fill="#69747A" d="M1721.4094,409.0267h11.4592v67.6027h-11.4592V409.0267z"/>
		<path fill="#69747A" d="M1758.3586,444.8889h4.6096c9.4869,0,15.5808,3.148,15.5808,12.0585
			c0,10.1066-8.1343,11.5682-15.5808,11.5682h-4.6096V444.8889z M1746.8994,476.6294h20.7668
			c9.798,0,22.5419-2.0404,22.5419-18.7084c0-13.0321-8.822-16.3571-14.6069-17.2422v-0.177
			c3.9238-1.5751,11.2593-4.6118,11.2593-15.6036c0-13.6994-11.8361-15.8714-19.1942-15.8714h-20.7668V476.6294z
			 M1758.3586,417.1837h4.6096c7.2468,0,12.2559,1.2642,12.2559,9.6867c0,8.7108-5.297,9.9069-12.2559,9.9069h-4.6096V417.1837z"/>
		<path fill="#69747A" d="M1812.8384,417.1837h9.0194c6.4503,0,10.0862,3.813,10.0862,10.8601
			c0,9.9976-7.4489,11.482-14.6072,11.482h-4.4984V417.1837z M1801.3564,476.6294h11.4819v-28.992h4.4984
			c10.4833,0,11.8588,3.6359,14.2305,14.4075l3.1025,14.5845h11.6794l-4.1216-18.9966
			c-1.5525-7.1584-2.6373-12.9209-12.0585-14.9817v-0.1997c6.9813-1.6613,13.4315-5.009,13.4315-15.6921
			c0-13.2091-9.0194-17.7325-21.7429-17.7325h-20.5013V476.6294z"/>
		<path fill="#69747A" d="M1878.687,419.9322h0.1993l9.3103,29.657h-18.8176L1878.687,419.9322z M1848.7867,476.6294h11.9476
			l5.8961-18.309h24.3143l5.8738,18.309h11.9449l-23.0275-67.6027h-13.8083L1848.7867,476.6294z"/>
		<path fill="#69747A" d="M1927.1814,417.1837h9.0217c6.4729,0,10.0839,3.813,10.0839,10.8601
			c0,9.9976-7.4465,11.482-14.5819,11.482h-4.5237V417.1837z M1915.7245,476.6294h11.4569v-28.992h4.5237
			c10.483,0,11.8562,3.6359,14.2052,14.4075l3.1252,14.5845h11.6818l-4.1444-18.9966c-1.5524-7.1584-2.6372-12.9209-12.0358-14.9817
			v-0.1997c6.959-1.6613,13.4316-5.009,13.4316-15.6921c0-13.2091-9.0421-17.7325-21.7656-17.7325h-20.4786V476.6294z"/>
		<path fill="#69747A" d="M1983.7246,445.2883l-22.2312-36.2616h13.0321l14.9817,24.3144l15.0071-24.3144h13.0317l-22.342,36.2616
			v31.3411h-11.4794V445.2883z"/>
	</g>
</g>
</svg>
